<svg width="481" height="181" xmlns="http://www.w3.org/2000/svg">
 <!-- Created with Method Draw - http://github.com/duopixel/Method-Draw/ -->

 <g>
  <title>background</title>
  <rect fill="#fff" id="canvas_background" height="183" width="483" y="-1" x="-1"/>
  <g display="none" overflow="visible" y="0" x="0" height="100%" width="100%" id="canvasGrid">
   <rect fill="url(#gridpattern)" stroke-width="0" y="0" x="0" height="100%" width="100%"/>
  </g>
 </g>
 <g>
  <title>Layer 1</title>
  <defs>
   <style type="text/css"/>
  </defs>
  <g stroke="null" id="svg_18">
   <path stroke="null" id="svg_5" fill="#49494A" d="m8.767385,172.23808a27.184185,27.184185 0 0 0 17.393903,-6.932712l-3.615446,0a25.854795,25.854795 0 0 0 34.787806,0l-3.540903,0a25.854795,25.854795 0 0 0 34.787806,0l-3.553326,0a25.854795,25.854795 0 0 0 34.787806,0l-3.540901,0a25.854795,25.854795 0 0 0 34.787806,0l-3.565751,0a27.171762,27.171762 0 0 0 17.393903,6.932712c3.242721,0.149091 3.230296,-4.895141 0,-4.969686a21.667833,21.667833 0 0 1 -13.840577,-5.466656a2.609085,2.609085 0 0 0 -3.565751,0a20.636624,20.636624 0 0 1 -27.681154,0a2.596662,2.596662 0 0 0 -3.553326,0a20.636624,20.636624 0 0 1 -27.681154,0a2.609085,2.609085 0 0 0 -3.565749,0a20.636624,20.636624 0 0 1 -27.681154,0a2.596662,2.596662 0 0 0 -3.553326,0a20.636624,20.636624 0 0 1 -27.681154,0a2.609085,2.609085 0 0 0 -3.565751,0a21.605713,21.605713 0 0 1 -13.753608,5.404535c-3.230296,0.136667 -3.255144,5.180899 0,4.969687l0,0.06212z"/>
   <path stroke="null" id="svg_6" fill="#49494A" d="m164.914936,172.23808a27.184185,27.184185 0 0 0 17.393903,-6.932712l-3.565749,0a25.854795,25.854795 0 0 0 34.787806,0l-3.491206,0a25.854795,25.854795 0 0 0 34.787806,0c2.484843,-2.124542 -1.11818,-5.677868 -3.565751,-3.565751a20.624199,20.624199 0 0 1 -27.66873,0a2.609085,2.609085 0 0 0 -3.565751,0a20.636624,20.636624 0 0 1 -27.681154,0a2.609085,2.609085 0 0 0 -3.565749,0a21.605713,21.605713 0 0 1 -13.828152,5.466655c-3.230297,0.136667 -3.255145,5.180899 0,4.969687l-0.037274,0.06212z"/>
   <path stroke="null" id="svg_7" fill="#92CAEE" d="m119.492001,129.821806c0.074546,2.422721 -0.14909,9.392707 -0.14909,9.392707l-8.696952,-0.633634l0,-86.33588l44.267484,75.78772s-4.957263,1.851207 -35.421442,1.789087z"/>
   <path stroke="null" id="svg_8" fill="#5DA1D3" d="m119.007456,138.543607l0,-71.861668l-8.436042,-14.436939l0,86.298607l8.771497,0.670907l0,-0.608786l-0.335455,-0.06212z"/>
   <path stroke="null" id="svg_9" fill="#49494A" d="m116.969885,129.821806c0,3.118479 -0.074545,6.212108 -0.186364,9.355434l2.484844,-2.484843l-8.696952,-0.621211l2.484843,2.484843l0,-86.311031l-4.65908,1.242421l44.267483,75.78772l1.466058,-3.727265a24.401161,24.401161 0 0 1 -6.000897,0.869695c-9.51695,0.857272 -19.12087,0.844847 -28.675092,0.844847c-3.242721,0 -3.242721,4.969687 0,4.969687c9.815131,0 19.717232,0 29.49509,-0.906969a28.165699,28.165699 0 0 0 6.522714,-0.981512a2.559389,2.559389 0 0 0 1.503331,-3.727265l-44.230211,-75.613781a2.484843,2.484843 0 0 0 -4.696353,1.242422l0,86.298606a2.584237,2.584237 0 0 0 2.484843,2.484844l8.80877,0.670908a2.559389,2.559389 0 0 0 2.484843,-2.484844c0.124242,-3.118479 0.236061,-6.212108 0.198787,-9.355434s-5.093928,-3.292418 -5.056655,-0.037272z"/>
   <path stroke="null" id="svg_10" fill="#49494A" d="m116.746249,87.25644l0,12.324823c0,3.242721 5.044232,3.242721 5.044232,0l0,-12.324823c0,-3.242721 -5.044232,-3.242721 -5.044232,0zm2.522117,-3.677568c3.242719,0 3.255144,-5.044231 0,-5.044231s-3.242721,5.044231 0,5.044231zm24.426009,3.453933l-16.101784,-25.842371c-1.714542,-2.733327 -6.075443,-0.248484 -4.360901,2.546965l16.114209,25.78025c1.714542,2.745751 6.075441,0.211211 4.348476,-2.484843z"/>
   <path stroke="null" id="svg_11" fill="#49494A" d="m159.100403,110.912148l-11.952096,-18.499657c-1.751815,-2.720904 -6.112714,-0.198788 -4.348476,2.484843l11.952096,18.512082c1.751815,2.70848 6.112715,0.186364 4.348476,-2.546965l0,0.049697zm1.689693,10.386645c3.242721,0 3.242721,-5.044232 0,-5.044232s-3.255144,5.044232 0,5.044232z"/>
   <path stroke="null" id="svg_12" fill="#F3D24F" d="m65.285145,121.385763c9.566647,6.59726 38.825677,6.212109 38.825676,6.212108s-11.094824,-26.662368 0,-50.342924c-16.275723,4.447869 -36.353257,27.805396 -38.825676,44.130816z"/>
   <path stroke="null" id="svg_13" fill="#BFAD65" d="m101.439614,84.33675a48.876867,48.876867 0 0 1 2.671207,-7.094228c-16.275723,4.460293 -36.353257,27.817821 -38.825676,44.143241a20.909957,20.909957 0 0 0 5.230594,2.484843c2.85757,-13.728758 17.046025,-31.644478 30.923875,-39.533856z"/>
   <path stroke="null" id="svg_14" fill="#49494A" d="m95.88599,129.958472c2.745753,0.086969 5.47908,0.173939 8.224831,0.149091c1.466058,0 3.068782,-1.627573 2.484844,-3.193023c-6.212108,-15.070575 -6.845744,-33.44599 -0.248485,-48.392323c0.819999,-1.863633 -0.546665,-4.423021 -2.845145,-3.727265c-7.081803,2.199087 -13.033002,6.299077 -18.636324,11.094826c-2.484843,2.112116 1.118179,5.665442 3.565749,3.565749c4.969687,-4.236657 10.138161,-7.864528 16.387542,-9.802706l-2.869993,-3.677568c-7.1315,16.151481 -6.957561,35.868713 -0.260908,52.281102l2.484843,-3.193023c-2.745751,0 -5.47908,0 -8.224831,-0.14909c-3.242721,-0.111819 -3.230296,4.969686 0,5.044231l-0.062122,0zm-16.859662,-38.328706c-7.367561,8.274528 -14.151183,17.97784 -16.151481,29.085091a2.646359,2.646359 0 0 0 1.155453,2.845145c6.7215,4.124839 15.045725,4.969686 22.723892,5.77726c3.230296,0.335453 3.205448,-4.708779 0,-4.969687c-6.733926,-0.708181 -14.275425,-1.466057 -20.176928,-5.093928l1.155453,2.845145c1.876056,-10.262403 8.063317,-19.207839 14.90906,-26.861156c2.14939,-2.410298 -1.391513,-5.988472 -3.565751,-3.565751l-0.049697,-0.06212z"/>
   <path stroke="null" id="svg_15" fill="#0F7888" d="m113.702317,150.296914c-6.696654,0 -13.430579,-0.323029 -20.027837,-0.969089l-2.484843,-0.236059c-2.211511,-0.211213 -2.261208,-0.223636 -3.26757,-0.372727l-3.342115,-0.496968l-0.94424,-0.124243l-14.784817,-17.393903l6.100289,1.329392a241.029798,241.029798 0 0 0 51.200196,5.255444c2.14939,0 4.348476,0 6.51029,-0.074545a232.693148,232.693148 0 0 0 53.772008,-7.330288s-18.300871,20.412988 -72.731362,20.412988z"/>
   <path stroke="null" id="svg_16" fill="#49494A" d="m168.567656,136.394217c6.212108,-1.167877 12.424216,-2.484844 18.536931,-4.087568l-2.484844,-4.21181c-11.181794,12.337246 -32.700537,16.449662 -48.193535,18.362992a188.363545,188.363545 0 0 1 -29.470241,1.242422c-6.758774,-0.223636 -15.095424,0.074545 -21.692682,-1.876058c-1.416361,-0.422423 1.006361,0.956666 -0.310606,0a10.3121,10.3121 0 0 1 -1.242422,-1.490906l-4.857868,-5.715139l-8.162709,-9.715737l-2.484844,4.211808c30.339937,6.609684 61.537144,8.858467 92.386473,4.398173c3.193023,-0.459695 1.826359,-5.305141 -1.341815,-4.857868c-29.892665,4.323627 -60.319571,2.000298 -89.702842,-4.398173a2.484843,2.484843 0 0 0 -2.484844,4.21181l8.957861,10.560584c2.136965,2.484843 4.298779,6.348775 7.45453,7.553924c5.951199,2.323329 15.157544,1.776662 21.270258,2.049995a194.538381,194.538381 0 0 0 32.613568,-1.242422c16.462088,-2.099692 38.925071,-6.609683 50.852318,-19.729655a2.484843,2.484843 0 0 0 -2.484843,-4.21181c-6.125138,1.602723 -12.324822,2.91969 -18.549354,4.087568c-3.1806,0.596362 -1.826361,5.441806 1.341815,4.857868l0.049697,0z"/>
   <path stroke="null" id="svg_17" fill="#49494A" d="m116.858067,118.478497l0,12.312397c0,3.242721 4.969687,3.255145 4.969687,0l0,-12.312397c0,-3.242721 -4.969686,-3.255145 -4.969686,0l-0.000001,0z"/>
  </g>
  <text font-weight="bold" stroke="#000" transform="matrix(3.2879424062216045,0,0,3.2879424062216045,-726.2015422842464,-232.4222446082783) " xml:space="preserve" text-anchor="start" font-family="'Times New Roman', Times, serif" font-size="24" id="svg_20" y="112.235883" x="281.004744" stroke-width="0" fill="#007fff">帆笔记</text>
 </g>
</svg>